<svg xmlns="http://www.w3.org/2000/svg" width="48" height="48" viewBox="0 0 36 36">
    <g data-name="icon/instagram">

        <g data-name="그룹 443">
            <path data-name="패스 608" d="M20.854 11.25h-5.708a3.9 3.9 0 0 0-3.9 3.9v5.707a3.9 3.9 0 0 0 3.9 3.9h5.707a3.894 3.894 0 0 0 3.9-3.9V15.15a3.9 3.9 0 0 0-3.9-3.9m2.653 9.7a2.588 2.588 0 0 1-2.587 2.587h-5.841a2.589 2.589 0 0 1-2.586-2.587v-5.841a2.587 2.587 0 0 1 2.586-2.587h5.841a2.587 2.587 0 0 1 2.587 2.587z"/>
            <path data-name="패스 609" d="M17.999 14.531a3.5 3.5 0 1 0 3.5 3.5 3.5 3.5 0 0 0-3.5-3.5m0 5.773a2.271 2.271 0 1 1 2.271-2.27 2.27 2.27 0 0 1-2.271 2.27"/>
            <path data-name="패스 610" d="M21.62 13.581a.816.816 0 1 0 .816.816.817.817 0 0 0-.816-.816"/>
        </g>
    </g>
</svg>
